<svg fill="#000000" height="800px" width="800px" version="1.1" id="Layer_1" xmlns="http://www.w3.org/2000/svg" xmlns:xlink="http://www.w3.org/1999/xlink" 
	 viewBox="0 0 503.654 503.654" xml:space="preserve">
<g transform="translate(-1)">
	<g>
		<g>
			<path d="M181.085,63.54C165.188,15.169,112.947-11.212,64.542,4.643c-23.426,7.705-42.454,24.064-53.584,46.08
				C-0.155,72.731-2.035,97.76,5.662,121.186l18.424,56.06l174.424-60.668L181.085,63.54z"/>
			<path d="M45.004,240.909c12.926,37.544,50.68,61.801,91.673,61.801c7.982,0,16.082-0.915,24.148-2.837
				c0.092-0.025,0.185-0.042,0.277-0.067c26.33-7.227,47.633-23.963,58.452-45.904c10.626-21.554,10.853-46.214,0.839-70.757
				l-16.636-50.621L29.325,193.193L45.004,240.909z"/>
			<path d="M475.495,58.463c-16.04-16.04-37.368-24.878-60.055-24.878s-44.007,8.838-60.055,24.878l-45.576,45.585L440.15,234.834
				l35.345-35.336C514.373,160.611,514.373,97.341,475.495,58.463z"/>
			<path d="M261.085,152.761c-33.347,33.347-33.347,87.611,0,120.95c19.33,19.33,44.703,28.991,70.102,28.991
				c25.373,0,50.764-9.669,70.085-28.991l27.01-27.01l-130.35-130.787L261.085,152.761z"/>
			<path d="M244.429,318.963h-58.754v184.656h58.754c50.906,0,92.328-41.422,92.328-92.328S295.336,318.963,244.429,318.963z"/>
			<path d="M26.2,411.29c0,50.906,41.422,92.328,92.328,92.328h50.361V318.963h-50.361C67.621,318.963,26.2,360.384,26.2,411.29z"/>
		</g>
	</g>
</g>
</svg>