<svg aria-hidden="true" style="position: absolute; width: 0; height: 0; overflow: hidden;" version="1.1" xmlns="http://www.w3.org/2000/svg" xmlns:xlink="http://www.w3.org/1999/xlink">
<defs>
<symbol id="icon-drugs1" viewBox="0 0 64 64">
<path d="M22.884 8.074c-2.020-6.147-8.658-9.499-14.809-7.484-2.977 0.979-5.395 3.058-6.809 5.855-1.412 2.797-1.651 5.977-0.673 8.954l2.341 7.124 22.164-7.709-2.214-6.74z"></path>
<path d="M5.592 30.613c1.643 4.771 6.44 7.853 11.649 7.853 1.014 0 2.044-0.116 3.069-0.361 0.012-0.003 0.023-0.005 0.035-0.008 3.346-0.918 6.053-3.045 7.428-5.833 1.35-2.739 1.379-5.872 0.107-8.991l-2.114-6.433-22.165 7.709 1.992 6.063z"></path>
<path d="M60.295 7.429c-2.038-2.038-4.748-3.161-7.631-3.161s-5.592 1.123-7.631 3.161l-5.791 5.793 16.563 16.619 4.491-4.49c4.94-4.941 4.94-12.981 0-17.922z"></path>
<path d="M33.049 19.412c-4.237 4.237-4.237 11.133 0 15.369 2.456 2.456 5.681 3.684 8.908 3.684 3.224 0 6.451-1.229 8.906-3.684l3.432-3.432-16.564-16.619-4.682 4.682z"></path>
<path d="M30.933 40.531h-7.466v23.465h7.466c6.469 0 11.732-5.264 11.732-11.732s-5.263-11.732-11.732-11.732z"></path>
<path d="M3.202 52.263c0 6.469 5.264 11.732 11.732 11.732h6.399v-23.464h-6.399c-6.469 0-11.732 5.263-11.732 11.732z"></path>
</symbol>
<symbol id="icon-drugs2" viewBox="0 0 64 64">
<path fill="#cee8fa" style="fill: var(--color1, #cee8fa)" d="M52.266 28.792c-5.586-5.586-13.721-7.061-20.66-4.438v23.454c0 4.116-1.973 7.792-5.018 10.135 7.635 5.926 18.665 5.389 25.678-1.624 7.602-7.601 7.602-19.926 0-27.527z"></path>
<path fill="#2d527c" style="fill: var(--color2, #2d527c)" d="M38.511 64c-0.001 0-0.001 0-0.002 0-4.741-0-9.406-1.595-13.137-4.49-0.485-0.376-0.768-0.956-0.767-1.57s0.287-1.193 0.773-1.567c2.698-2.075 4.245-5.197 4.245-8.564v-23.454c0-0.824 0.51-1.563 1.281-1.854 2.434-0.921 4.993-1.387 7.605-1.387 5.726 0 11.109 2.229 15.158 6.277 4.051 4.051 6.282 9.437 6.282 15.165s-2.231 11.114-6.282 15.165c-4.049 4.049-9.432 6.279-15.157 6.279zM29.771 57.698c2.639 1.519 5.669 2.338 8.738 2.338 0 0 0.001 0 0.001 0 4.666 0 9.053-1.817 12.353-5.117 3.302-3.302 5.121-7.692 5.121-12.362s-1.819-9.060-5.121-12.362c-3.3-3.3-7.687-5.117-12.354-5.117-1.677 0-3.327 0.236-4.921 0.702v22.029c0 3.707-1.366 7.194-3.817 9.889z"></path>
<path fill="#2d527c" style="fill: var(--color2, #2d527c)" d="M32.187 50.853c-0.507 0-1.014-0.194-1.401-0.581-0.774-0.774-0.774-2.029 0-2.803l12.63-12.63c0.774-0.774 2.029-0.774 2.803 0s0.774 2.029 0 2.803l-12.63 12.63c-0.387 0.387-0.894 0.581-1.402 0.581z"></path>
<path fill="#2d527c" style="fill: var(--color2, #2d527c)" d="M18.82 62.578c-8.143 0-14.769-6.625-14.769-14.769v-33.040c0-8.143 6.625-14.769 14.769-14.769s14.769 6.625 14.769 14.769c0 1.095-0.888 1.982-1.982 1.982s-1.982-0.887-1.982-1.982c0-5.958-4.847-10.805-10.805-10.805s-10.805 4.847-10.805 10.805v33.040c0 5.958 4.847 10.805 10.805 10.805s10.805-4.847 10.805-10.805c0-1.095 0.888-1.982 1.982-1.982s1.982 0.887 1.982 1.982c0 8.144-6.625 14.769-14.769 14.769z"></path>
<path fill="#2d527c" style="fill: var(--color2, #2d527c)" d="M23.064 33.271h-8.489c-1.095 0-1.982-0.887-1.982-1.982s0.888-1.982 1.982-1.982h8.489c1.095 0 1.982 0.887 1.982 1.982s-0.888 1.982-1.982 1.982z"></path>
</symbol>
<symbol id="icon-drugs3" viewBox="0 0 64 64">
<path d="M55.192 31.587c-0.211-1.227-0.967-5.129-2.317-6.912-1.404-1.855-6.094-5.063-7.166-5.785v-2.303l3.803-1.184c1.087-0.338 1.816-1.33 1.816-2.468v-3.877c0-1.181-0.799-2.211-1.944-2.504l-7.713-1.973c-0.536-0.137-1.094-0.021-1.531 0.318s-0.688 0.851-0.688 1.405v1.576l-3.334 3.655c-0.678 0.744-0.421 2.045 0.585 2.963 0.571 0.52 1.242 0.789 1.84 0.789 0.456 0 0.871-0.157 1.164-0.479v0h0c0-0 0.001-0.001 0.001-0.001l0.608-0.666c0.935 2.429 3.932 10.554 3.932 14.972 0 5.185-1.858 9.373-4.518 10.183-0.741 0.226-1.951 0.344-3.371 0.374-0.536-0.813-2.451-3.815-2.743-5.667-0.199-1.26 0.18-2.374 0.515-3.356 0.239-0.703 0.465-1.367 0.465-2.014 0-0.909-0.422-1.72-0.803-2.266 1.165-0.316 2.059-1.342 2.146-2.612 0.053-0.776-0.2-1.526-0.711-2.112s-1.22-0.938-1.996-0.991l-9.038-0.615c0.491-0.655 0.782-1.468 0.782-2.348v-13.768c-0-2.163-1.759-3.922-3.922-3.922h-12.826c-2.163 0-3.922 1.759-3.922 3.922v13.768c0 2.076 1.622 3.78 3.665 3.913-0.013 0.082-0.022 0.164-0.028 0.247-0.088 1.296 0.691 2.455 1.84 2.907-0.177 0.225-0.335 0.464-0.475 0.718h-2.343c-0.87 0-1.577 0.708-1.577 1.577v1.787c0 0.87 0.708 1.577 1.577 1.577h0.713c-2.9 2.607-4.654 5.881-5.482 10.198-0.036 0.187 0.044 0.378 0.203 0.483 0.079 0.053 0.17 0.079 0.262 0.079s0.183-0.027 0.263-0.080c2.701-1.802 4.837-4.145 6.355-6.965 0.493-0.059 1.699-0.192 3.126-0.279l-0.32 1.816c-1.695 0.345-3.239 1.249-4.378 2.57-1.226 1.423-1.901 3.242-1.901 5.122 0 4.328 3.521 7.849 7.849 7.849 4.128 0 7.519-3.204 7.824-7.255 2.326 0.553 11.096 2.581 14.683 2.581 4.146 0 7.244-1.944 7.374-2.027 0.072-0.046 0.131-0.111 0.169-0.188l1.614-3.238c0.079 0.408 0.2 0.802 0.361 1.177-0.051 0.363-0.078 0.732-0.078 1.1 0 4.328 3.521 7.849 7.849 7.849s7.849-3.521 7.849-7.849c0-3.124-1.858-5.844-4.525-7.103 2.418 0.138 4.364 0.818 4.403 0.832 0.169 0.061 0.358 0.020 0.487-0.104s0.177-0.312 0.124-0.483c-0.773-2.463-3.351-4.54-6.598-4.916zM54.219 31.526c-0.745-0.006-1.516 0.076-2.303 0.263-0.927-0.454-1.564-1.754-1.564-3.232 0-1.588 0.757-2.975 1.765-3.316 0.001 0.002 0.003 0.004 0.004 0.005 1.141 1.507 1.852 4.922 2.099 6.28zM50.382 9.059v3.877c0 0.721-0.463 1.35-1.151 1.564l-1.067 0.332v-7.613l0.986 0.252c0.725 0.186 1.232 0.838 1.232 1.587zM39.971 13.115c-0.147-0.444-0.432-0.89-0.849-1.27s-0.886-0.623-1.342-0.728l2.494-2.735c0.123-0.134 0.307-0.168 0.462-0.168 0.065 0 0.125 0.006 0.173 0.013 0.344 0.050 0.72 0.242 1.032 0.527 0.645 0.589 0.794 1.329 0.524 1.626l-2.494 2.735zM37.342 13.799c-0.645-0.589-0.794-1.329-0.524-1.626s1.022-0.217 1.667 0.372c0.645 0.589 0.794 1.329 0.524 1.626v0c-0.271 0.296-1.022 0.217-1.667-0.372zM8.228 0.946h12.826c1.641 0 2.976 1.335 2.976 2.976v0.739h-18.778v-0.739c0-1.641 1.335-2.976 2.976-2.976zM5.252 17.69v-12.082h18.778v12.082c0 1.641-1.335 2.976-2.976 2.976h-12.826c-1.641 0-2.976-1.335-2.976-2.976zM8.887 21.914c0.007-0.102 0.022-0.203 0.044-0.302h12.123c0.822 0 1.585-0.255 2.216-0.689l9.897 0.674c0.524 0.036 1.002 0.273 1.347 0.668s0.515 0.902 0.48 1.425c-0.073 1.081-1.012 1.902-2.094 1.827l-22.187-1.51c-1.081-0.074-1.901-1.013-1.827-2.094zM6.335 28.839v-1.787c0-0.348 0.283-0.631 0.631-0.631h1.927c-0.256 0.756-0.386 1.609-0.386 2.558v0.491h-1.541c-0.348 0-0.631-0.283-0.631-0.631zM3.385 39.608c0.888-3.613 2.542-6.403 5.121-8.656v2.622c-1.26 2.377-2.978 4.403-5.121 6.034zM9.453 28.979c0-1.728 0.474-3.076 1.408-4.013l21.792 1.483c0.282 0.313 0.998 1.205 0.998 2.184 0 0.491-0.192 1.056-0.415 1.71-0.352 1.032-0.789 2.317-0.554 3.808 0.277 1.756 1.767 4.284 2.553 5.525-3.506-0.033-7.785-0.521-9.594-1.237 0.692-3.112 2.12-5.080 4.359-6.011 0.241-0.1 0.356-0.377 0.255-0.619s-0.377-0.356-0.619-0.255c-2.444 1.016-4.077 3.175-4.86 6.421-0.717-0.484-1.325-1.139-1.961-1.825-1.084-1.167-2.204-2.374-4.005-2.912-2.564-0.766-7.683-0.272-9.358-0.081v-4.18zM13.351 45.086c0.169 0.030 0.336 0.044 0.502 0.044 1.372 0 2.591-0.985 2.837-2.382l0.335-1.898c0.536 0.72 0.833 1.598 0.833 2.511 0 2.317-1.885 4.203-4.203 4.203s-4.203-1.885-4.203-4.203c0-1.423 0.735-2.742 1.895-3.51l-0.334 1.895c-0.276 1.565 0.773 3.063 2.338 3.339zM18.139 34.535c0.772 0.98 1.23 2.167 1.4 3.632-0.509-0.577-1.105-1.083-1.777-1.495l0.377-2.137zM17.289 33.9l-1.531 8.683c-0.185 1.051-1.191 1.756-2.242 1.57s-1.755-1.191-1.57-2.242l1.429-8.107c1.33-0.054 2.748-0.050 3.914 0.096zM13.656 50.264c-3.806 0-6.903-3.097-6.903-6.903 0-3.19 2.131-5.899 5.154-6.68l-0.349 1.977c-1.836 0.821-3.052 2.677-3.052 4.703 0 2.839 2.31 5.149 5.149 5.149s5.149-2.31 5.149-5.149c0-1.399-0.569-2.733-1.57-3.701l0.348-1.976c1.85 1.282 2.975 3.401 2.975 5.677 0 3.806-3.096 6.903-6.903 6.903zM42.921 43.776c-0.568 0.331-3.31 1.814-6.758 1.814-3.552 0-12.758-2.149-14.668-2.605-0.057-1.19-0.383-2.334-0.934-3.354 0.011-2.122-0.434-3.85-1.355-5.234 1.186 0.537 2.031 1.444 2.917 2.399 0.811 0.873 1.649 1.776 2.763 2.342 1.738 0.883 6.775 1.478 10.739 1.478 1.837 0 3.443-0.128 4.383-0.414 3.103-0.945 5.188-5.401 5.188-11.088 0-4.968-3.481-14.020-4.166-15.754l2.136-2.342c0 0 0 0 0 0 0.678-0.744 0.421-2.045-0.585-2.963-0.455-0.415-0.999-0.686-1.533-0.764-0.227-0.033-0.446-0.029-0.648 0.009v-0.996c0-0.259 0.117-0.498 0.322-0.657s0.466-0.213 0.717-0.149l5.781 1.479v8.149l-2.122 0.661c-0.198 0.062-0.333 0.245-0.333 0.452v2.904c0 0.159 0.080 0.307 0.212 0.394 0.050 0.033 4.441 2.954 6.475 4.964-1.206 0.629-2.044 2.22-2.044 4.056 0 1.476 0.525 2.792 1.372 3.581-2.134 0.81-3.88 2.436-4.848 4.55-0.364 0.794-0.588 1.609-0.677 2.411l-2.331 4.676zM60.355 43.361c0 3.806-3.097 6.903-6.903 6.903s-6.903-3.097-6.903-6.903c0-0.342 0.026-0.684 0.076-1.020 0.238-0.472 1.408-2.656 3.447-4.245l0.268 1.162c-1.282 0.972-2.038 2.482-2.038 4.103 0 2.839 2.31 5.149 5.149 5.149s5.149-2.31 5.149-5.149c0-2.445-1.677-4.509-4.030-5.026l-0.425-1.84c3.475 0.351 6.209 3.311 6.209 6.866zM50.581 40.295l0.795 3.444c0.13 0.563 0.472 1.042 0.962 1.349 0.348 0.218 0.742 0.33 1.143 0.33 0.163 0 0.328-0.019 0.491-0.056 1.163-0.269 1.89-1.433 1.622-2.596l-0.781-3.383c1.683 0.568 2.842 2.141 2.842 3.979 0 2.317-1.885 4.203-4.203 4.203s-4.203-1.885-4.203-4.203c0-1.175 0.488-2.278 1.331-3.067zM53.188 36.552l1.484 6.426c0.151 0.654-0.259 1.31-0.913 1.461s-1.31-0.258-1.461-0.913l-1.388-6.013c0.498-0.307 1.038-0.572 1.619-0.768 0.218-0.074 0.438-0.137 0.66-0.193zM52.225 35.848c-3.066 1.036-5.037 3.675-5.951 5.18-0.269-1.227-0.094-2.615 0.515-3.946 0.938-2.048 2.775-3.641 4.914-4.26 0.8-0.232 1.614-0.347 2.417-0.347 1.208 0 2.39 0.26 3.464 0.775 1.299 0.622 2.324 1.56 2.922 2.649-1.668-0.443-5.149-1.11-8.281-0.051zM9.76 14.877h2.634v2.634c0 0.261 0.212 0.473 0.473 0.473h3.548c0.261 0 0.473-0.212 0.473-0.473v-2.634h2.634c0.261 0 0.473-0.212 0.473-0.473v-3.548c0-0.261-0.212-0.473-0.473-0.473h-2.634v-2.634c0-0.261-0.212-0.473-0.473-0.473h-3.548c-0.261 0-0.473 0.212-0.473 0.473v2.634h-2.634c-0.261 0-0.473 0.212-0.473 0.473v3.548c0 0.261 0.212 0.473 0.473 0.473zM10.233 11.33h2.634c0.261 0 0.473-0.212 0.473-0.473v-2.634h2.601v2.634c0 0.261 0.212 0.473 0.473 0.473h2.634v2.601h-2.634c-0.261 0-0.473 0.212-0.473 0.473v2.634h-2.601v-2.634c0-0.261-0.212-0.473-0.473-0.473h-2.634v-2.601z"></path>
</symbol>
<symbol id="logo" viewBox="8 0 48 52">
<path d="M53.986 41.761l-0.922-2.766c-0.793-2.378-2.591-4.244-4.932-5.12l-1.68-0.631v-0.997c1.184-0.308 2.065-1.376 2.065-2.655s-0.881-2.347-2.065-2.655v-1.474h0.688c0.328 0 0.611-0.232 0.675-0.553l0.688-3.441c0.046-0.232-0.029-0.47-0.2-0.633s-0.412-0.227-0.642-0.17l-2.67 0.668h-4.044c-0.38 0-0.688 0.308-0.688 0.688v2.753c0 0.38 0.308 0.688 0.688 0.688h0.77c0.391 1.542 0.606 3.471 0.606 5.505 0 5.123-1.337 8.258-2.065 8.258h-0.688c0-0.975-0.513-1.828-1.279-2.317l-1.549-7.633c-0.006-0.028-0.013-0.055-0.022-0.082-0.473-1.409-1.786-2.355-3.268-2.355h-0.445l0.537-1.376h3.273c1.138 0 2.065-0.926 2.065-2.064s-0.926-2.064-2.065-2.064h-1.838c0-0.632-0.21-1.248-0.619-1.747-0.251-0.306-0.562-0.545-0.907-0.716 0.387-0.485 0.608-1.075 0.608-1.706v-1.336h0.688c0.38 0 0.688-0.308 0.688-0.688 0-1.451-0.653-2.813-1.79-3.738-1.13-0.919-2.6-1.274-4.034-0.975-1.727 0.361-3.151 1.688-3.625 3.379-0.371 1.323-0.175 2.69 0.551 3.851 0.357 0.57 0.825 1.053 1.365 1.429-0.007 0.024-0.021 0.044-0.025 0.070l-1.376 8.258c-0.003 0.018 0.004 0.035 0.003 0.053-0.002 0.021-0.012 0.039-0.012 0.060v2.064h-1.376v-11.699c0-0.38-0.308-0.688-0.688-0.688h-12.387c-0.38 0-0.688 0.308-0.688 0.688v12.387c0 0.38 0.308 0.688 0.688 0.688h2.88c-0.077 0.216-0.127 0.446-0.127 0.688 0 1.138 0.926 2.065 2.065 2.065h0.688v1.026c0 0.306-0.204 0.577-0.499 0.66-1.266 0.363-2.426 1.062-3.353 2.020-0.923 0.953-1.582 2.136-1.907 3.421-0.006 0.025-0.011 0.050-0.014 0.076l-0.413 3.028c-0.027 0.197 0.033 0.396 0.163 0.546s0.32 0.236 0.518 0.236h2.998c0.575 1.622 2.12 2.753 3.884 2.753s3.309-1.131 3.884-2.753h17.278c0.313 0 0.615-0.107 0.831-0.286l2.133-1.63c-0.023 0.178-0.039 0.358-0.039 0.539 0 2.277 1.852 4.129 4.129 4.129s4.129-1.852 4.129-4.129c0-0.232-0.024-0.462-0.062-0.688h2.126c0.221 0 0.429-0.106 0.558-0.286s0.165-0.41 0.095-0.62zM47.14 29.591c0 0.507-0.279 0.946-0.688 1.185v-2.37c0.409 0.239 0.688 0.678 0.688 1.185zM41.634 22.71h3.441c0.056 0 0.112-0.007 0.167-0.020l1.698-0.424-0.364 1.821h-4.941v-1.376zM35.441 39.226v-1.376h1.376c0.759 0 1.376 0.617 1.376 1.376h-2.753zM31.597 39.226c-0.396 0-0.786-0.245-1.097-0.69-0.358-0.512-0.564-1.233-0.564-1.979v-2.964c0.799-0.285 1.376-1.042 1.376-1.938 0-0.242-0.050-0.472-0.127-0.688h1.193c0.286 0 0.539 0.173 0.641 0.434l1.060 5.684c-0.003 0.026-0.015 0.049-0.015 0.076v2.065h-2.468zM37.505 23.398c0 0.379-0.309 0.688-0.688 0.688h-4.817v-1.376h2.166c0 0 0.001 0 0.001 0h2.65c0.379 0 0.688 0.309 0.688 0.688zM33.603 21.333h-1.603c-0.759 0-1.376 0.617-1.376 1.376v1.376c0 0.759 0.617 1.376 1.376 1.376h0.067l-0.537 1.376h-3.534l1.147-6.882h3.092c0.413 0 0.8 0.183 1.062 0.503 0.204 0.249 0.307 0.557 0.307 0.874zM32.685 17.164c0 0.373-0.147 0.721-0.413 0.983s-0.629 0.396-0.99 0.393l-0.541-0.010 0.353-2.141c0.061-0.325 0.344-0.561 0.676-0.561h0.915v1.336zM27.314 14.178c0.337-1.203 1.35-2.146 2.581-2.403 0.239-0.050 0.479-0.075 0.717-0.075 0.785 0 1.548 0.266 2.167 0.77 0.631 0.513 1.054 1.212 1.212 1.982h-2.221c-0.999 0-1.854 0.714-2.031 1.697-0.001 0.003-0.001 0.007-0.002 0.010l-0.358 2.171c-0.683-0.275-1.273-0.765-1.672-1.403-0.518-0.828-0.658-1.804-0.393-2.749zM27.871 28.215h5.581c0.877 0 1.655 0.552 1.95 1.379l1.396 6.879h-1.432l-1.003-5.377c-0.005-0.030-0.013-0.060-0.023-0.089-0.279-0.847-1.067-1.416-1.961-1.416h-4.507v-1.376zM12.731 18.581h11.011v11.011h-11.011v-11.011zM16.172 31.656c0-0.379 0.309-0.688 0.688-0.688h12.387c0.379 0 0.688 0.309 0.688 0.688s-0.309 0.688-0.688 0.688h-12.387c-0.379 0-0.688-0.309-0.688-0.688zM18.925 46.108c-1.002 0-1.898-0.547-2.38-1.376h4.759c-0.481 0.829-1.378 1.376-2.38 1.376zM49.892 43.355c0 1.518-1.235 2.753-2.753 2.753s-2.753-1.235-2.753-2.753c0-0.234 0.039-0.463 0.096-0.688h5.313c0.057 0.225 0.096 0.454 0.096 0.688zM50.299 41.29c-0.002 0-0.003 0-0.005 0h-6.308c-0.002 0-0.003 0-0.005 0h-0.736c-0.307 0-0.599 0.1-0.837 0.286l-2.321 1.779h-27.255l0.301-2.207c0.269-1.038 0.805-1.993 1.552-2.764 0.76-0.786 1.709-1.358 2.739-1.653 0.884-0.247 1.501-1.063 1.501-1.984v-1.026h9.634v2.837c0 1.036 0.289 2.020 0.813 2.768 0.568 0.812 1.379 1.277 2.225 1.277h8.661c2.259 0 3.441-4.847 3.441-9.634 0-2-0.201-3.915-0.567-5.505h1.944v8.258c0 0.287 0.178 0.543 0.446 0.644l2.127 0.799c1.951 0.73 3.449 2.285 4.11 4.266l0.62 1.861h-2.080z"></path>
<path d="M19.613 28.215c0.38 0 0.688-0.308 0.688-0.688v-1.376h1.376c0.38 0 0.688-0.308 0.688-0.688v-2.753c0-0.38-0.308-0.688-0.688-0.688h-1.376v-1.376c0-0.38-0.308-0.688-0.688-0.688h-2.753c-0.38 0-0.688 0.308-0.688 0.688v1.376h-1.376c-0.38 0-0.688 0.308-0.688 0.688v2.753c0 0.38 0.308 0.688 0.688 0.688h1.376v1.376c0 0.38 0.308 0.688 0.688 0.688h2.753zM15.484 23.398h1.376c0.38 0 0.688-0.308 0.688-0.688v-1.376h1.376v1.376c0 0.38 0.308 0.688 0.688 0.688h1.376v1.376h-1.376c-0.38 0-0.688 0.308-0.688 0.688v1.376h-1.376v-1.376c0-0.38-0.308-0.688-0.688-0.688h-1.376v-1.376z"></path>
<path d="M19.53 10.357l-0.973 0.973c-0 0-0 0-0 0s-0 0-0 0.001l-0.973 0.973c-0.39 0.39-0.605 0.909-0.605 1.46s0.215 1.070 0.605 1.46v0c0.403 0.402 0.931 0.604 1.46 0.604s1.057-0.201 1.46-0.604l1.946-1.946c0.805-0.805 0.805-2.115 0-2.92-0.78-0.78-2.14-0.78-2.92 0zM18.556 14.25c0 0 0 0 0-0-0.13-0.13-0.202-0.302-0.202-0.486s0.072-0.357 0.202-0.487l0.487-0.487 0.973 0.973-0.487 0.487c-0.268 0.268-0.705 0.268-0.973 0zM21.476 11.33c0.268 0.268 0.268 0.705 0 0.973l-0.487 0.487-0.973-0.973 0.487-0.487c0.13-0.13 0.302-0.202 0.486-0.202s0.357 0.072 0.487 0.202z"></path>
<path d="M17.465 9.030c0.39 0.39 0.909 0.605 1.46 0.605s1.070-0.215 1.46-0.604c0-0 0-0 0-0s0 0 0 0c0.39-0.39 0.605-0.908 0.605-1.46s-0.215-1.070-0.605-1.46l-0.973-0.973c-0-0-0-0-0-0s-0-0-0-0l-0.973-0.973c-0.806-0.806-2.115-0.805-2.92 0s-0.805 2.115 0 2.92l1.946 1.946zM19.411 8.056c0 0 0 0-0 0-0.259 0.26-0.713 0.26-0.973 0l-0.487-0.487 0.973-0.973 0.487 0.487c0.13 0.13 0.202 0.302 0.202 0.486s-0.072 0.356-0.202 0.486zM16.492 5.137c0.134-0.134 0.311-0.201 0.487-0.201s0.352 0.067 0.487 0.201l0.486 0.487-0.973 0.973-0.487-0.487c-0.268-0.269-0.268-0.705 0-0.973z"></path>
<path d="M10.667 12.387h4.817c0.38 0 0.688-0.308 0.688-0.688s-0.308-0.688-0.688-0.688h-4.817c-0.38 0-0.688 0.308-0.688 0.688s0.308 0.688 0.688 0.688z"></path>
<path d="M14.108 14.452c0-0.38-0.308-0.688-0.688-0.688h-2.753c-0.38 0-0.688 0.308-0.688 0.688s0.308 0.688 0.688 0.688h2.753c0.38 0 0.688-0.308 0.688-0.688z"></path>
<path d="M10.667 8.946h3.441c0.38 0 0.688-0.308 0.688-0.688s-0.308-0.688-0.688-0.688h-3.441c-0.38 0-0.688 0.308-0.688 0.688s0.308 0.688 0.688 0.688z"></path>
<path d="M10.667 6.194h2.065c0.38 0 0.688-0.308 0.688-0.688s-0.308-0.688-0.688-0.688h-2.064c-0.38 0-0.688 0.308-0.688 0.688s0.308 0.688 0.688 0.688z"></path>
<path d="M45.075 16.516c0.212 0 0.412-0.098 0.542-0.265 0.438-0.56 4.275-5.547 4.275-7.993 0-2.656-2.161-4.817-4.817-4.817s-4.817 2.161-4.817 4.817c0 2.446 3.837 7.433 4.275 7.993 0.13 0.167 0.33 0.265 0.542 0.265zM45.075 4.817c1.897 0 3.441 1.544 3.441 3.441 0 1.322-1.93 4.381-3.441 6.43-1.511-2.049-3.441-5.107-3.441-6.43 0-1.897 1.544-3.441 3.441-3.441z"></path>
<path d="M47.14 8.258c0-1.138-0.926-2.064-2.065-2.064s-2.065 0.926-2.065 2.064 0.926 2.065 2.065 2.065 2.065-0.926 2.065-2.064zM44.387 8.258c0-0.379 0.309-0.688 0.688-0.688s0.688 0.309 0.688 0.688-0.309 0.688-0.688 0.688-0.688-0.309-0.688-0.688z"></path>
</symbol>
<symbol id="icon-drugs5" viewBox="0 0 64 64">
<path d="M12.005 47.561c2.345 0 4.542-0.832 6.339-2.271 2.352 1.89 5.214 2.97 8.27 2.97 3.583 0 6.94-1.411 9.462-3.963 5.128-5.216 5.059-13.635-0.157-18.763-2.493-2.458-5.802-3.813-9.305-3.813-1.532 0-3.007 0.307-4.403 0.8v-12.313c-0.001-5.629-4.581-10.209-10.206-10.209-5.63 0-10.212 4.58-10.212 10.209v27.148c0 5.626 4.581 10.205 10.212 10.205zM5.019 37.353v-12.415h13.027c-0.296 0.255-0.616 0.468-0.893 0.745-4.67 4.754-4.977 12.145-1.058 17.302-1.179 0.863-2.589 1.348-4.090 1.348-3.857 0.004-6.986-3.127-6.986-6.979zM33.776 42.031c-3.383 3.433-9.046 3.805-12.939 1.124l13.852-14.080c2.86 3.903 2.583 9.405-0.913 12.956zM32.397 26.812l-13.866 14.091c-2.855-3.899-2.578-9.401 0.918-12.955 1.904-1.935 4.447-3.003 7.164-3.003 2.103 0 4.103 0.668 5.783 1.868zM12.005 3.222c3.849 0 6.98 3.131 6.98 6.983v11.508h-13.966v-11.508c0-3.852 3.13-6.983 6.986-6.983zM62.206 29.989c0 0.89-0.718 1.613-1.612 1.613h-11.289l-9.147 20.911c-0.258 0.589-0.838 0.97-1.48 0.97h-34.528c-0.888 0-1.612-0.724-1.612-1.612 0-0.892 0.724-1.612 1.612-1.612h33.475l9.147-20.914c0.258-0.586 0.838-0.967 1.48-0.967h12.341c0.895-0.001 1.613 0.723 1.613 1.612zM16.289 59.386c0 2.551-2.068 4.614-4.611 4.614-2.551 0-4.619-2.066-4.619-4.614s2.068-4.617 4.619-4.617c2.543 0.006 4.611 2.072 4.611 4.617zM32.699 59.386c0 2.551-2.066 4.614-4.617 4.614-2.545 0-4.619-2.066-4.619-4.614s2.074-4.617 4.619-4.617c2.551 0.006 4.617 2.072 4.617 4.617z"></path>
</symbol>
</defs>
</svg>
